<svg id="Layer_1" data-name="Layer 1" xmlns="http://www.w3.org/2000/svg" viewBox="0 0 132.16 191.62"><defs><style>.cls-1{font-size:25.98px;font-family:ProductSans-Regular, Product Sans;}.cls-1,.cls-6{fill:#cc1934;}.cls-2{letter-spacing:-0.01em;}.cls-3{letter-spacing:-0.07em;}.cls-4{letter-spacing:-0.1em;}.cls-5{letter-spacing:-0.02em;}.cls-7,.cls-8{fill:#fff;}.cls-7{opacity:0.66;}.cls-9{fill:none;stroke:#fff;stroke-miterlimit:10;stroke-width:0.75px;}.cls-10{fill:#fcfcfc;}</style></defs><text class="cls-1" transform="translate(1.95 185.05) scale(1.08 1)"><tspan class="cls-2">S</tspan><tspan class="cls-3" x="14.1" y="0">A</tspan><tspan class="cls-4" x="29.51" y="0">Y</tspan><tspan x="42.34" y="0">eT</tspan><tspan class="cls-5" x="70.29" y="0">E</tspan><tspan x="83.85" y="0">CH</tspan></text><path class="cls-6" d="M357.88,181q9.87,10.36,9.87,25.43,0,18.81-17.77,31.75t-44.72,12.93q-23.46,0-41.23-11.31a70.9,70.9,0,0,1-15.7-13.7A66.88,66.88,0,0,1,237,207.29v0a12.33,12.33,0,0,1-1.36-5.65c0-7.4,6.47-13.39,14.47-13.39a14.47,14.47,0,0,1,13.44,8.46v0c.12.33.28.72.45,1.18a.13.13,0,0,1,0,.08c1.92,4.68,6.91,15,17.34,21.79a47.79,47.79,0,0,0,13.41,5.94A43,43,0,0,0,305.26,227c7.35,0,12.38-1.62,21.68-5l.28-.11,1.35-.49a12.78,12.78,0,0,0,5.84-3.68,17.67,17.67,0,0,0,1.73-2.69c.39-.75.72-1.57,1.38-3.21a16.9,16.9,0,0,0,.62-1.73,8.45,8.45,0,0,0,.42-1.92,6.54,6.54,0,0,0-.32-2.48,7.33,7.33,0,0,0-.78-1.61h0a.19.19,0,0,0,0-.07.9.9,0,0,0-.06-.22q-.08-.27-.18-.54c0-.11-.07-.23-.12-.34l-.14-.33a18.75,18.75,0,0,0-1-2.14c-.06-.11-.12-.22-.19-.33a18.2,18.2,0,0,0-1.24-1.86c-2.57-3.39-9.45-7.83-19.36-10.84l-26.7-6.08a86.47,86.47,0,0,1-12.87-3.51c-1.76-.63-3.33-1.26-4.7-1.86l-.14-.06-.14-.06c-1.68-.76-10.7-4.92-16.67-10.26-.47-.41-.9-.83-1.2-1.12,0,0,0,0,0,0l-.35-.36c-.19-.2-.76-.79-1.45-1.6,0,0-.53-.62-1.08-1.32a.21.21,0,0,0,0-.06,48.74,48.74,0,0,1-3.33-5.11,33.37,33.37,0,0,1-3.33-14.83q0-19.71,17.29-31.6t44.25-11.91q20.61,0,37.27,9.12a63.91,63.91,0,0,1,18.41,15.78,62.16,62.16,0,0,1,5.15,7.47.05.05,0,0,0,0,0,12.66,12.66,0,0,1,2.26,7.21c0,7.4-6.49,13.4-14.47,13.4a14.5,14.5,0,0,1-13.25-8c-.13-.24-.24-.5-.35-.75a31.29,31.29,0,0,0-4.38-6.73,33.65,33.65,0,0,0-10.54-8.25,49.51,49.51,0,0,0-22.36-5.15,53.54,53.54,0,0,0-11.56,1.46l-.54.15-.68.21-.42.13-.07,0c-.16,0-.32.1-.49.17-1.16.42-2.85,1.12-3.86,1.58l-.08,0-.15.07c-.17.09-.35.18-.54.26l-.15.08,0,0-.12.06-.17.09-.06,0-.25.13c-.48.28-.6.42-1.28.79-.41.23-.59.3-1,.56l-.24.15-.17.12-.31.19c-.86.59-1.63,1.06-1.85,1.2a13.2,13.2,0,0,0-4.63,5.94,12.22,12.22,0,0,0-.82,4.78,16.62,16.62,0,0,0,1.51,6.26c2,4.22,10.81,9.45,23.53,11.38l23.48,5.58Q346.37,168.87,357.88,181Z" transform="translate(-235.59 -97.62)"/><path class="cls-7" d="M361,188.09a15.79,15.79,0,0,0-3.09-7.13c-.33-.42-.66-.8-1-1.14-.1-.11-.21-.23-.32-.33l-.05,0c-.19-.17-.37-.35-.58-.52q-11.56-10.65-34.46-15.87l-22.12-5.26-1.36-.32a77.06,77.06,0,0,1-9.76-2.66,4.15,4.15,0,0,1-.53-.2c-1.64-.65-3.12-1.24-4.46-1.88a14.58,14.58,0,0,1-1.31-.66c-.23-.12-.47-.26-.68-.39l0,0a8.63,8.63,0,0,1-.82-.51,16.58,16.58,0,0,1-3.11-2.59c-1.32-1.42-3.88-4.15-4.3-8,0-.24,0-.5,0-.76s0-.64,0-.94a9.3,9.3,0,0,1,.11-.94c0-.2.06-.4.11-.61s.16-.62.25-.92c1.33-4.06,4.93-7.08,7.06-8.59l.17-.12.24-.15c.16-.11.55-.36,1.06-.66s.93-.53,1.23-.69l.25-.13.06,0,.17-.09.12-.06,0,0,.15-.08c.19-.08.37-.17.54-.26l.15-.07.08,0c1.31-.63,2.34-1,2.34-1,.52-.2,1-.39,1.52-.55.17-.07.33-.12.49-.17l.49-.16.68-.21.54-.15c1.23-.35,2.28-.59,3-.74a21.83,21.83,0,0,0-2.43,0,67.29,67.29,0,0,0-6.79,1.09,62.13,62.13,0,0,0-9.87,2.43,47.81,47.81,0,0,0-8.45,3.9,40,40,0,0,0-7.23,5.45,31.34,31.34,0,0,0-5.52,6.72,28.69,28.69,0,0,0-3.34,7.87c-.81,3.18-2,7.86-.47,11.16h0s0,0,0,0a8.79,8.79,0,0,0,2.88,3.28s0,0,0,0a37.88,37.88,0,0,0,4.29,4,47.4,47.4,0,0,0,10.28,6c.84.38,1.83.79,3.3,1.38l.14.06.14.06,2.93,1.16,1.77.7c1.91.75,3.11,1.2,4.42,1.63a61.69,61.69,0,0,0,8.53,2.17l23.79,5.5,2.86.67q15.64,4.44,20.57,12.32c.07.11.13.22.19.33a12.61,12.61,0,0,1,1.16,2.47c.05.11.08.23.12.34s.13.36.18.54a.9.9,0,0,1,.06.22.19.19,0,0,1,0,.07h0a7.33,7.33,0,0,1,.78,1.61,6.54,6.54,0,0,1,.32,2.48,8.45,8.45,0,0,1-.42,1.92,16.9,16.9,0,0,1-.62,1.73c-.66,1.64-1,2.46-1.38,3.21a17.67,17.67,0,0,1-1.73,2.69,12.78,12.78,0,0,1-5.84,3.68l-1.35.49-.35.12h.07a48.64,48.64,0,0,0,9.49-2.46,46.69,46.69,0,0,0,8.36-4.06,41.86,41.86,0,0,0,7.13-5.58,32.2,32.2,0,0,0,5.36-6.82,28.54,28.54,0,0,0,3.16-7.93A17.84,17.84,0,0,0,361,188.09Zm-80.59-37c-.22-.14-.46-.27-.67-.42a17.59,17.59,0,0,1-3.56-3l0-.07A20.48,20.48,0,0,0,280.38,151.14Zm-5.05-4.42a3.15,3.15,0,0,1-.22-.29,4.41,4.41,0,0,1-.42-.64C274.89,146.1,275.1,146.41,275.33,146.72Zm-.82-1.23a2.61,2.61,0,0,1-.17-.28l-.06-.14Zm-.26-.48c-.15-.28-.29-.56-.41-.84s-.13-.33-.19-.5A11.43,11.43,0,0,0,274.25,145Zm-1.06-3.07a2.63,2.63,0,0,1-.09-.55A4.85,4.85,0,0,0,273.19,141.94Z" transform="translate(-235.59 -97.62)"/><path class="cls-7" d="M338.56,208.15a8.45,8.45,0,0,1-.42,1.92,16.9,16.9,0,0,1-.62,1.73c-.66,1.64-1,2.46-1.38,3.21a17.67,17.67,0,0,1-1.73,2.69,12.78,12.78,0,0,1-5.84,3.68l-1.35.49a13.93,13.93,0,0,0,1.4-.6c6.13-3,9.36-9.61,9.36-13.22a15.06,15.06,0,0,0-.52-4,7.33,7.33,0,0,1,.78,1.61A6.54,6.54,0,0,1,338.56,208.15Z" transform="translate(-235.59 -97.62)"/><path class="cls-8" d="M250.7,204.36h-3.37a.16.16,0,0,1-.16-.15,2.07,2.07,0,0,0-.49-1.16h0a3.74,3.74,0,0,1-1.29-2.83,3.63,3.63,0,1,1,7.25,0,3.73,3.73,0,0,1-1.31,2.84,2.13,2.13,0,0,0-.47,1.15A.16.16,0,0,1,250.7,204.36Zm-3.23-.33h3.09a2.35,2.35,0,0,1,.55-1.21,3.41,3.41,0,0,0,1.2-2.6,3.3,3.3,0,1,0-6.59,0,3.42,3.42,0,0,0,1.18,2.59l0,0A2.3,2.3,0,0,1,247.47,204Z" transform="translate(-235.59 -97.62)"/><path class="cls-8" d="M250.7,205.36h-3.37a.16.16,0,0,1-.16-.16.16.16,0,0,1,.16-.17h3.37a.16.16,0,0,1,.16.17A.16.16,0,0,1,250.7,205.36Z" transform="translate(-235.59 -97.62)"/><path class="cls-8" d="M250.7,206.36h-3.37a.16.16,0,0,1-.16-.16.16.16,0,0,1,.16-.17h3.37a.16.16,0,0,1,.16.17A.16.16,0,0,1,250.7,206.36Z" transform="translate(-235.59 -97.62)"/><path class="cls-8" d="M249.72,207.36h-1.41a.16.16,0,0,1-.16-.16.17.17,0,0,1,.16-.17h1.41a.17.17,0,0,1,.16.17A.16.16,0,0,1,249.72,207.36Z" transform="translate(-235.59 -97.62)"/><circle class="cls-9" cx="14.29" cy="104.33" r="11.99"/><circle class="cls-9" cx="117.47" cy="39.05" r="11.99"/><path class="cls-10" d="M357.75,134.05a.19.19,0,0,0-.18,0l-.52.29-.15-5a.19.19,0,0,0-.19-.18h-1.32a.19.19,0,0,0-.19.18l-.18,6.16-.58.32v-1.56a.18.18,0,0,0-.18-.19l-.1,0L351,135.78v-1.56a.18.18,0,0,0-.19-.19l-.09,0-3.4,1.89a.19.19,0,0,0-.1.17v4.15a.19.19,0,0,0,.19.19h10.21a.19.19,0,0,0,.19-.19v-6A.21.21,0,0,0,357.75,134.05Zm-2.18-4.56h1v.38h-1Zm0,.76h1l.12,4.3-1.26.7Zm-3.18,9.82h-1.14v-.94h1.14Zm1.51,0h-1.14v-.94h1.14Zm3.59,0h-3.21v-1.13a.2.2,0,0,0-.19-.19h-3a.2.2,0,0,0-.19.19v1.13h-3.21v-3.85l3-1.68v1.57a.18.18,0,0,0,.18.18.16.16,0,0,0,.1,0l3.12-1.73v1.57a.18.18,0,0,0,.19.18.15.15,0,0,0,.09,0l1.78-1,.83-.46.51-.28Z" transform="translate(-235.59 -97.62)"/><path class="cls-10" d="M349.91,136.67H348.4a.19.19,0,0,0-.19.19v.76a.19.19,0,0,0,.19.19h1.51a.2.2,0,0,0,.19-.19v-.76A.2.2,0,0,0,349.91,136.67Zm-.19.76h-1.13v-.38h1.13Z" transform="translate(-235.59 -97.62)"/><path class="cls-10" d="M353.31,136.67H351.8a.2.2,0,0,0-.19.19v.76a.2.2,0,0,0,.19.19h1.51a.19.19,0,0,0,.19-.19v-.76A.19.19,0,0,0,353.31,136.67Zm-.19.76H352v-.38h1.13Z" transform="translate(-235.59 -97.62)"/><path class="cls-10" d="M356.71,136.67H355.2a.2.2,0,0,0-.19.19v.76a.2.2,0,0,0,.19.19h1.51a.19.19,0,0,0,.19-.19v-.76A.19.19,0,0,0,356.71,136.67Zm-.19.76h-1.13v-.38h1.13Z" transform="translate(-235.59 -97.62)"/></svg>